<svg xmlns="http://www.w3.org/2000/svg"  viewBox="0 0 100 100" width="100px" height="100px"><path fill="#ee3e54" d="M13 27A2 2 0 1 0 13 31A2 2 0 1 0 13 27Z"/><path fill="#f1bc19" d="M77 12A1 1 0 1 0 77 14A1 1 0 1 0 77 12Z"/><path fill="#fce0a2" d="M50 13A37 37 0 1 0 50 87A37 37 0 1 0 50 13Z"/><path fill="#f1bc19" d="M83 11A4 4 0 1 0 83 19A4 4 0 1 0 83 11Z"/><path fill="#ee3e54" d="M87 22A2 2 0 1 0 87 26A2 2 0 1 0 87 22Z"/><path fill="#fbcd59" d="M81 74A2 2 0 1 0 81 78 2 2 0 1 0 81 74zM15 59A4 4 0 1 0 15 67 4 4 0 1 0 15 59z"/><path fill="#ee3e54" d="M25 85A2 2 0 1 0 25 89A2 2 0 1 0 25 85Z"/><path fill="#fff" d="M18.5 51A2.5 2.5 0 1 0 18.5 56A2.5 2.5 0 1 0 18.5 51Z"/><path fill="#f1bc19" d="M21 66A1 1 0 1 0 21 68A1 1 0 1 0 21 66Z"/><path fill="#fff" d="M80 33A1 1 0 1 0 80 35A1 1 0 1 0 80 33Z"/><g><path fill="#ef5390" d="M35,72.3c-4.025,0-7.3-3.274-7.3-7.3V35c0-4.025,3.274-7.3,7.3-7.3h30c4.025,0,7.3,3.274,7.3,7.3 v30c0,4.025-3.274,7.3-7.3,7.3H35z"/><path fill="#472b29" d="M65,28.4c3.639,0,6.6,2.961,6.6,6.6v30c0,3.639-2.961,6.6-6.6,6.6H35c-3.639,0-6.6-2.961-6.6-6.6 V35c0-3.639,2.961-6.6,6.6-6.6H65 M65,27H35c-4.4,0-8,3.6-8,8v30c0,4.4,3.6,8,8,8h30c4.4,0,8-3.6,8-8V35C73,30.6,69.4,27,65,27 L65,27z"/></g><g><path fill="#472b29" d="M68.5,47.375c-0.276,0-0.5-0.224-0.5-0.5V43c0-0.276,0.224-0.5,0.5-0.5S69,42.724,69,43v3.875 C69,47.151,68.776,47.375,68.5,47.375z"/></g><g><path fill="#472b29" d="M68.5,40.5c-0.276,0-0.5-0.224-0.5-0.5v-2c0-0.276,0.224-0.5,0.5-0.5S69,37.724,69,38v2 C69,40.276,68.776,40.5,68.5,40.5z"/></g><g><path fill="#472b29" d="M64,69H36c-2.757,0-5-2.243-5-5V36c0-2.757,2.243-5,5-5h25.375c0.276,0,0.5,0.224,0.5,0.5 s-0.224,0.5-0.5,0.5H36c-2.206,0-4,1.794-4,4v28c0,2.206,1.794,4,4,4h28c2.206,0,4-1.794,4-4V49.625c0-0.276,0.224-0.5,0.5-0.5 s0.5,0.224,0.5,0.5V64C69,66.757,66.757,69,64,69z"/></g><g><path fill="#fdfcee" d="M49.999,37.001c-7.167,0-12.998,5.831-12.998,12.998c0,3.543,1.428,6.757,3.736,9.105 c0.024,0.029,0.044,0.06,0.071,0.087c0.028,0.028,0.059,0.047,0.088,0.071c2.347,2.308,5.561,3.736,9.104,3.736 c7.167,0,12.999-5.831,12.999-12.999C62.997,42.832,57.166,37.001,49.999,37.001z M49.999,39.535c2.429,0,4.662,0.84,6.44,2.234 L41.768,56.439c-1.394-1.778-2.234-4.011-2.234-6.44C39.534,44.229,44.229,39.535,49.999,39.535z M49.999,60.465 c-2.429,0-4.662-0.84-6.44-2.234L58.231,43.56c1.394,1.778,2.234,4.011,2.234,6.44C60.464,55.77,55.77,60.465,49.999,60.465z"/><path fill="#472b29" d="M50,63.249c-3.486,0-6.781-1.353-9.279-3.808c-0.036-0.026-0.064-0.048-0.089-0.073 c-0.025-0.024-0.047-0.053-0.069-0.081c-2.459-2.506-3.812-5.802-3.812-9.287c0-7.306,5.943-13.249,13.248-13.249 c7.304,0,13.248,5.943,13.25,13.249C63.249,57.306,57.306,63.249,50,63.249z M49.999,37.251c-7.029,0-12.748,5.719-12.748,12.749 c0,3.354,1.301,6.524,3.664,8.93l0.157,0.154c2.404,2.363,5.574,3.665,8.928,3.665c7.03,0,12.749-5.719,12.749-12.749 C62.747,42.97,57.027,37.251,49.999,37.251z M49.999,60.715c-2.405,0-4.685-0.791-6.594-2.287l-0.222-0.174l15.07-15.07 l0.174,0.222c1.496,1.909,2.287,4.189,2.287,6.595C60.714,55.908,55.908,60.715,49.999,60.715z M43.938,58.206 c1.772,1.315,3.862,2.009,6.061,2.009c5.633,0,10.215-4.582,10.215-10.215c0-2.199-0.694-4.289-2.009-6.062L43.938,58.206z M41.745,56.815l-0.174-0.222c-1.496-1.908-2.287-4.188-2.287-6.594c0-5.909,4.807-10.716,10.715-10.716 c2.407,0,4.687,0.791,6.594,2.288l0.222,0.174L41.745,56.815z M49.999,39.784c-5.632,0-10.215,4.583-10.215,10.216 c0,2.199,0.693,4.288,2.009,6.061L56.06,41.794C54.289,40.479,52.199,39.784,49.999,39.784z"/></g></svg>