<svg xmlns="http://www.w3.org/2000/svg"  viewBox="0 0 100 100" width="100px" height="100px"><path fill="#ee3e54" d="M12.875,26.958c-1.105,0-2,0.895-2,2s0.895,2,2,2s2-0.895,2-2S13.98,26.958,12.875,26.958z"/><path fill="#f1bc19" d="M76.875,11.958c-0.551,0-1,0.449-1,1s0.449,1,1,1s1-0.449,1-1S77.426,11.958,76.875,11.958z"/><path fill="#fce0a2" d="M49.875,12.958c-20.434,0-37,16.566-37,37s16.566,37,37,37s37-16.566,37-37 S70.309,12.958,49.875,12.958z"/><path fill="#f1bc19" d="M82.875,10.958c-2.211,0-4,1.789-4,4s1.789,4,4,4s4-1.789,4-4S85.086,10.958,82.875,10.958z"/><path fill="#ee3e54" d="M86.875,21.958c-1.105,0-2,0.895-2,2s0.895,2,2,2s2-0.895,2-2S87.98,21.958,86.875,21.958z"/><path fill="#fbcd59" d="M80.875,73.958c-1.105,0-2,0.895-2,2s0.895,2,2,2s2-0.895,2-2S81.98,73.958,80.875,73.958z M14.875,58.958c-2.211,0-4,1.789-4,4c0,2.211,1.789,4,4,4s4-1.789,4-4C18.875,60.747,17.086,58.958,14.875,58.958z"/><path fill="#ee3e54" d="M24.875,84.958c-1.105,0-2,0.895-2,2s0.895,2,2,2s2-0.895,2-2S25.98,84.958,24.875,84.958z"/><path fill="#fff" d="M20.375,36.958c-1.379,0-2.5,1.121-2.5,2.5s1.121,2.5,2.5,2.5s2.5-1.121,2.5-2.5 S21.754,36.958,20.375,36.958z"/><path fill="#f1bc19" d="M20.875,64.958c-0.551,0-1,0.449-1,1s0.449,1,1,1s1-0.449,1-1S21.426,64.958,20.875,64.958z"/><path fill="#fff" d="M79.875,31.958c-0.551,0-1,0.449-1,1s0.449,1,1,1s1-0.449,1-1S80.426,31.958,79.875,31.958z"/><path fill="#edf7f5" d="M36.727,69.3c-2.771,0-5.026-2.215-5.026-4.937V24.637c0-2.723,2.255-4.937,5.026-4.937h20.709 L70.3,32.365v31.998c0,2.723-2.255,4.937-5.026,4.937H36.727z"/><path fill="#472b29" d="M57.149,20.4l6.23,6.133l6.221,6.125v31.705c0,2.336-1.941,4.237-4.326,4.237H36.726 c-2.386,0-4.326-1.901-4.326-4.237V24.637c0-2.336,1.941-4.237,4.326-4.237h0.832h7.869H57.149 M57.723,19H45.427h-7.869h-0.832 C33.577,19,31,21.536,31,24.637v39.726c0,3.1,2.577,5.637,5.726,5.637h28.547C68.423,70,71,67.464,71,64.363V32.071 C65.836,26.988,62.886,24.083,57.723,19L57.723,19z"/><path fill="#85cfcc" d="M57.5,20v8.202c0,2.914,2.396,5.298,5.325,5.298H71"/><path fill="#472b29" d="M71,34h-8.175C59.613,34,57,31.399,57,28.202V20h1v8.202C58,30.848,60.165,33,62.825,33H71V34z"/><path fill="#472b29" d="M47.5,23.75h-6c-0.138,0-0.25-0.112-0.25-0.25s0.112-0.25,0.25-0.25h6 c0.138,0,0.25,0.112,0.25,0.25S47.638,23.75,47.5,23.75z"/><path fill="#472b29" d="M63.781,65.75H38.219c-1.637,0-2.969-1.332-2.969-2.969V26.219c0-1.637,1.332-2.969,2.969-2.969 H39.5c0.138,0,0.25,0.112,0.25,0.25s-0.112,0.25-0.25,0.25h-1.281c-1.361,0-2.469,1.107-2.469,2.469v36.563 c0,1.361,1.107,2.469,2.469,2.469h25.563c1.361,0,2.469-1.107,2.469-2.469V51.5c0-0.138,0.112-0.25,0.25-0.25 s0.25,0.112,0.25,0.25v11.281C66.75,64.418,65.418,65.75,63.781,65.75z"/><g><path fill="#472b29" d="M66.5,49.75c-0.138,0-0.25-0.112-0.25-0.25v-5c0-0.138,0.112-0.25,0.25-0.25s0.25,0.112,0.25,0.25 v5C66.75,49.638,66.638,49.75,66.5,49.75z"/></g><g><path fill="#472b29" d="M66.5,42.333c-0.138,0-0.25-0.112-0.25-0.25v-2.25c0-0.138,0.112-0.25,0.25-0.25 s0.25,0.112,0.25,0.25v2.25C66.75,42.221,66.638,42.333,66.5,42.333z"/></g><g><path fill="#472b29" d="M54.5,23.75H40.75c-0.138,0-0.25-0.112-0.25-0.25s0.112-0.25,0.25-0.25H54.5 c0.138,0,0.25,0.112,0.25,0.25S54.638,23.75,54.5,23.75z"/></g><g><path fill="#472b29" d="M46.5,45.75h-8c-0.138,0-0.25-0.112-0.25-0.25s0.112-0.25,0.25-0.25h8c0.138,0,0.25,0.112,0.25,0.25 S46.638,45.75,46.5,45.75z"/></g><g><path fill="#472b29" d="M46.5,49.75h-8c-0.138,0-0.25-0.112-0.25-0.25s0.112-0.25,0.25-0.25h8c0.138,0,0.25,0.112,0.25,0.25 S46.638,49.75,46.5,49.75z"/></g><g><path fill="#472b29" d="M46.5,37.75h-8c-0.138,0-0.25-0.112-0.25-0.25s0.112-0.25,0.25-0.25h8c0.138,0,0.25,0.112,0.25,0.25 S46.638,37.75,46.5,37.75z"/></g><g><path fill="#472b29" d="M46.5,41.75h-8c-0.138,0-0.25-0.112-0.25-0.25s0.112-0.25,0.25-0.25h8c0.138,0,0.25,0.112,0.25,0.25 S46.638,41.75,46.5,41.75z"/></g><g><path fill="#472b29" d="M46.5,29.75h-8c-0.138,0-0.25-0.112-0.25-0.25s0.112-0.25,0.25-0.25h8c0.138,0,0.25,0.112,0.25,0.25 S46.638,29.75,46.5,29.75z"/></g><g><path fill="#472b29" d="M54.5,33.75h-16c-0.138,0-0.25-0.112-0.25-0.25s0.112-0.25,0.25-0.25h16 c0.138,0,0.25,0.112,0.25,0.25S54.638,33.75,54.5,33.75z"/></g><g><path fill="#472b29" d="M50.5,53.75h-12c-0.138,0-0.25-0.112-0.25-0.25s0.112-0.25,0.25-0.25h12 c0.138,0,0.25,0.112,0.25,0.25S50.638,53.75,50.5,53.75z"/></g><g><path fill="#472b29" d="M61.5,53.75h-8c-0.138,0-0.25-0.112-0.25-0.25s0.112-0.25,0.25-0.25h8c0.138,0,0.25,0.112,0.25,0.25 S61.638,53.75,61.5,53.75z"/></g><g><path fill="#472b29" d="M61.5,57.75h-23c-0.138,0-0.25-0.112-0.25-0.25s0.112-0.25,0.25-0.25h23 c0.138,0,0.25,0.112,0.25,0.25S61.638,57.75,61.5,57.75z"/></g><g><path fill="#472b29" d="M46.5,61.75h-8c-0.138,0-0.25-0.112-0.25-0.25s0.112-0.25,0.25-0.25h8c0.138,0,0.25,0.112,0.25,0.25 S46.638,61.75,46.5,61.75z"/></g><g><path fill="#472b29" d="M61.5,61.75h-13c-0.138,0-0.25-0.112-0.25-0.25s0.112-0.25,0.25-0.25h13 c0.138,0,0.25,0.112,0.25,0.25S61.638,61.75,61.5,61.75z"/></g><g><path fill="#a8dbdb" d="M61.202,49.627h-9.463c-0.704,0-1.279-0.605-1.279-1.343v-9.611c0-0.739,0.576-1.343,1.279-1.343 h9.463c0.704,0,1.279,0.605,1.279,1.343v9.611C62.481,49.023,61.904,49.627,61.202,49.627z"/><path fill="#472b29" d="M61.202,49.891H51.74c-0.845,0-1.53-0.721-1.53-1.607v-9.611c0-0.886,0.687-1.607,1.53-1.607 h9.462c0.845,0,1.53,0.721,1.53,1.607v9.611C62.732,49.17,62.045,49.891,61.202,49.891z M51.739,37.593 c-0.566,0-1.028,0.484-1.028,1.079v9.611c0,0.595,0.462,1.079,1.028,1.079h9.462c0.566,0,1.028-0.484,1.028-1.079v-9.611 c0-0.595-0.462-1.079-1.028-1.079H51.739z"/><path fill="#f1bc19" d="M54.004,38.709c-0.936,0-1.695,0.797-1.695,1.78c0,0.983,0.759,1.78,1.695,1.78 s1.695-0.797,1.695-1.78C55.699,39.506,54.94,38.709,54.004,38.709z"/><path fill="#472b29" d="M54.004,42.533c-1.073,0-1.948-0.917-1.948-2.044c0-1.126,0.874-2.044,1.948-2.044 c1.074,0,1.947,0.917,1.947,2.044C55.951,41.615,55.078,42.533,54.004,42.533z M54.004,38.973c-0.796,0-1.445,0.68-1.445,1.516 c0,0.836,0.649,1.516,1.445,1.516c0.796,0,1.444-0.68,1.444-1.516C55.448,39.653,54.801,38.973,54.004,38.973z"/><g><path fill="#88ae45" d="M50.46,46.714l2.876-3.242l2.326,3.201l-1.887,2.955l-2.23-0.025c0,0-1.084-0.183-1.084-1.229 C50.46,47.328,50.46,46.714,50.46,46.714z"/><path fill="#472b29" d="M53.773,49.892c-0.001,0-0.002,0-0.003,0l-2.23-0.024c-0.485-0.079-1.331-0.487-1.331-1.494 v-1.658c0-0.067,0.024-0.131,0.067-0.179l2.875-3.242c0.05-0.057,0.102-0.09,0.196-0.083c0.073,0.003,0.143,0.041,0.188,0.103 l2.326,3.201c0.064,0.09,0.068,0.213,0.009,0.307l-1.888,2.955C53.935,49.848,53.856,49.892,53.773,49.892z M50.711,46.818v1.555 c0,0.813,0.836,0.963,0.872,0.968l2.056,0.02l1.712-2.679l-2.035-2.802L50.711,46.818z"/></g><g><path fill="#88ae45" d="M62.442,45.707l-3.064-4.512l-5.587,8.432h7.476c0.667,0,1.213-0.544,1.213-1.209v-2.706 L62.442,45.707z"/><path fill="#472b29" d="M61.268,49.891h-7.476c-0.094,0-0.18-0.055-0.223-0.141c-0.043-0.087-0.037-0.192,0.017-0.272 l5.587-8.432c0.046-0.071,0.123-0.113,0.205-0.113h0.001c0.081,0,0.157,0.041,0.204,0.111l3.012,4.436 c0.082,0.044,0.138,0.133,0.138,0.235v2.705C62.732,49.23,62.075,49.891,61.268,49.891z M54.274,49.363h6.994 c0.53,0,0.961-0.424,0.961-0.946v-2.57l-2.848-4.194L54.274,49.363z"/></g></g><g><path fill="#472b29" d="M48.56,71.04c-0.128,0-0.256-0.049-0.354-0.146c-0.195-0.195-0.195-0.512,0-0.707l2.784-2.785 c0.195-0.195,0.512-0.195,0.707,0s0.195,0.512,0,0.707l-2.784,2.785C48.816,70.992,48.688,71.04,48.56,71.04z"/><path fill="#88ae45" d="M36.689,82.541l-0.131-0.131c-1.058-1.058-1.058-2.79,0-3.848l8.088-8.088 c1.058-1.058,2.79-1.058,3.848,0l0.131,0.131c1.058,1.058,1.058,2.79,0,3.848l-8.088,8.088 C39.479,83.6,37.747,83.6,36.689,82.541z"/><path fill="#472b29" d="M38.613,83.837c-0.824,0-1.649-0.314-2.277-0.942l0,0l-0.131-0.131 c-1.255-1.256-1.255-3.299,0-4.555l8.088-8.088c1.254-1.255,3.298-1.257,4.556,0l0.131,0.131 c0.605,0.605,0.939,1.415,0.939,2.277c0,0.863-0.334,1.672-0.94,2.278l-8.087,8.088C40.263,83.523,39.438,83.837,38.613,83.837z M37.042,82.188c0.865,0.866,2.276,0.864,3.142,0l8.087-8.088c0.418-0.417,0.647-0.975,0.647-1.571 c0-0.595-0.229-1.153-0.647-1.57l-0.131-0.131c-0.866-0.866-2.274-0.866-3.141,0l-8.088,8.088c-0.865,0.866-0.865,2.275,0,3.141 L37.042,82.188z"/><path fill="#d1dc82" d="M48.264,70.825c-0.923-0.923-2.374-0.984-3.223-0.135l-0.154,0.154l0.336,0.336l3.022,3.022 l0.154-0.154C49.248,73.199,49.187,71.749,48.264,70.825z"/><path fill="#472b29" d="M48.249,74.982c-0.096,0-0.192-0.037-0.266-0.11l-3.58-3.581c-0.146-0.146-0.146-0.384,0-0.53 c0.146-0.146,0.385-0.146,0.531,0l3.58,3.581c0.146,0.146,0.146,0.384,0,0.53C48.442,74.945,48.345,74.982,48.249,74.982z"/><path fill="#77cbd2" d="M60.122,49.13c-5.438-0.003-9.85,4.403-9.853,9.841c-0.003,5.438,4.403,9.85,9.841,9.853 c0.004,0,0.008,0,0.012,0c5.438,0.003,9.85-4.403,9.853-9.841c0.003-5.438-4.403-9.85-9.841-9.853 C60.13,49.13,60.126,49.13,60.122,49.13z" opacity=".74"/><path fill="#fdfcef" d="M68.85,50.249c-4.834-4.834-12.672-4.834-17.506,0s-4.834,12.672,0,17.506s12.672,4.834,17.506,0 C73.685,62.921,73.685,55.083,68.85,50.249z M67.06,65.965c-3.845,3.845-10.08,3.845-13.925,0s-3.845-10.08,0-13.925 s10.08-3.845,13.925,0S70.905,62.12,67.06,65.965z"/><path fill="#472b29" d="M60.097,71.874c-3.298,0-6.596-1.255-9.106-3.766c-5.021-5.021-5.021-13.191,0-18.213 c5.022-5.022,13.192-5.02,18.213,0c5.021,5.021,5.021,13.191,0,18.213C66.693,70.619,63.395,71.874,60.097,71.874z M60.097,47.13 c-3.042,0-6.083,1.157-8.399,3.473c-4.632,4.631-4.632,12.167,0,16.799c4.633,4.631,12.168,4.629,16.799,0 c4.632-4.631,4.632-12.167,0-16.799C66.181,48.288,63.139,47.13,60.097,47.13z M60.097,69.349c-2.764,0-5.361-1.076-7.315-3.03 s-3.03-4.552-3.03-7.316s1.076-5.362,3.03-7.316c1.954-1.955,4.552-3.031,7.315-3.031s5.362,1.076,7.316,3.031 c1.954,1.954,3.031,4.552,3.031,7.316s-1.077,5.362-3.031,7.316S62.861,69.349,60.097,69.349z M60.097,49.656 c-2.496,0-4.844,0.972-6.608,2.738c-1.766,1.765-2.737,4.112-2.737,6.609s0.972,4.844,2.737,6.609s4.112,2.737,6.608,2.737 c2.497,0,4.844-0.972,6.609-2.737s2.738-4.112,2.738-6.609s-0.973-4.844-2.738-6.609C64.941,50.628,62.594,49.656,60.097,49.656z"/><path fill="#472b29" d="M37.991,83.385c-0.053,0-0.102-0.034-0.119-0.087l-1.377-4.28 c-0.021-0.065,0.016-0.136,0.081-0.157c0.065-0.02,0.136,0.015,0.157,0.081l1.377,4.28c0.021,0.065-0.016,0.136-0.081,0.157 C38.016,83.383,38.003,83.385,37.991,83.385z"/><path fill="#472b29" d="M38.864,83.088c-0.054,0-0.104-0.035-0.12-0.089l-1.562-5.245 c-0.02-0.066,0.019-0.136,0.084-0.155c0.071-0.021,0.137,0.019,0.156,0.084l1.562,5.245c0.02,0.066-0.019,0.136-0.084,0.155 C38.887,83.087,38.875,83.088,38.864,83.088z"/><g><path fill="#472b29" d="M39.389,81.245c-0.054,0-0.104-0.035-0.12-0.089l-1.307-4.389 c-0.02-0.066,0.019-0.136,0.084-0.155c0.073-0.02,0.137,0.019,0.156,0.084l1.307,4.389c0.02,0.066-0.019,0.136-0.084,0.155 C39.413,81.244,39.401,81.245,39.389,81.245z"/></g><g><path fill="#472b29" d="M39.921,79.321c-0.054,0-0.104-0.035-0.12-0.089l-0.921-3.094 c-0.02-0.066,0.019-0.136,0.084-0.155c0.071-0.021,0.137,0.019,0.156,0.084l0.921,3.094c0.02,0.066-0.019,0.136-0.084,0.155 C39.945,79.319,39.933,79.321,39.921,79.321z"/></g></g></svg>